<svg xmlns="http://www.w3.org/2000/svg" xmlns:xlink="http://www.w3.org/1999/xlink" width="960" height="146" version="1.1" viewBox="0 0 960 146"><title>grid-gutter-m</title><desc>Created with Sketch.</desc><g id="1---Brand" fill="none" fill-rule="evenodd" stroke="none" stroke-width="1"><g id="6_Grid" transform="translate(-240.000000, -2469.000000)"><g id="structure" transform="translate(240.000000, 837.000000)"><g id="bp-copy" transform="translate(0.000000, 1252.000000)"><g id="small-copy" transform="translate(0.000000, 338.000000)"><g id="grid-gutter-m" transform="translate(0.000000, 42.000000)"><rect id="Rectangle-5" width="960" height="118" x="0" y="0" fill="#FAFBFF" fill-rule="nonzero"/><g id="Group-5" fill-rule="nonzero"><g id="Group-8" fill="#B6F2E4"><rect id="Rectangle-8" width="58" height="118" x="0" y="0"/><rect id="Rectangle-8-Copy-23" width="58" height="118" x="82" y="0"/><rect id="Rectangle-8-Copy-24" width="58" height="118" x="164" y="0"/><rect id="Rectangle-8-Copy-25" width="58" height="118" x="246" y="0"/><rect id="Rectangle-8-Copy-26" width="58" height="118" x="328" y="0"/><rect id="Rectangle-8-Copy-27" width="58" height="118" x="410" y="0"/><rect id="Rectangle-8-Copy-28" width="58" height="118" x="492" y="0"/><rect id="Rectangle-8-Copy-29" width="58" height="118" x="574" y="0"/><rect id="Rectangle-8-Copy-30" width="58" height="118" x="656" y="0"/><rect id="Rectangle-8-Copy-31" width="58" height="118" x="738" y="0"/><rect id="Rectangle-8-Copy-32" width="58" height="118" x="820" y="0"/><rect id="Rectangle-8-Copy-33" width="58" height="118" x="902" y="0"/></g><rect id="Rectangle-11-Copy" width="140" height="88" x="82" y="15" fill="#C3A7FC"/><rect id="Rectangle-11-Copy-2" width="140" height="88" x="246" y="15" fill="#C3A7FC"/><rect id="Rectangle-11-Copy-3" width="140" height="88" x="410" y="15" fill="#C3A7FC"/><rect id="Rectangle-11-Copy-8" width="140" height="88" x="574" y="15" fill="#C3A7FC"/><rect id="Rectangle-11-Copy-9" width="140" height="88" x="738" y="15" fill="#C3A7FC"/></g><g id="Guides-/-Annotation-/-Size-/-Width" fill="#F3376B" fill-rule="nonzero" transform="translate(644.000000, 112.500000) rotate(-180.000000) translate(-644.000000, -112.500000) translate(574.000000, 107.000000)"><rect id="Rectangle" width="2" height="11" x="0" y="0"/><rect id="Rectangle-Copy" width="2" height="11" x="138" y="0"/><rect id="Rectangle-2" width="140" height="2" x="0" y="0"/></g><g id="Group-10" fill="#F3376B" transform="translate(380.000000, 107.000000)"><g id="Group-11"><g id="Guides-/-Annotation-/-Size-/-Width" fill-rule="nonzero" transform="translate(18.000000, 5.500000) rotate(-180.000000) translate(-18.000000, -5.500000) translate(6.000000, 0.000000)"><rect id="Rectangle" width="2" height="11" x="0" y="0"/><rect id="Rectangle-Copy" width="2" height="11" x="22" y="0"/><rect id="Rectangle-2" width="24" height="2" x="0" y="0"/></g><g id="Guides-/-Annotation-/-Size-/-Value-/-Bottom" transform="translate(0.000000, 11.000000)"><text id="Value" font-family="IBMPlexSans-Bold, IBM Plex Sans" font-size="12" font-weight="bold" letter-spacing=".3"><tspan x="3.788" y="25">24px</tspan></text><polygon id="Line-3" fill-rule="nonzero" points="17 0 19 0 19 11 17 11"/></g></g><g id="Guides-/-Annotation-/-Size-/-Value-/-Bottom" transform="translate(246.000000, 11.000000)"><text id="Value" font-family="IBMPlexSans-Bold, IBM Plex Sans" font-size="12" font-weight="bold" letter-spacing=".3"><tspan x=".038" y="25">140px</tspan></text><polygon id="Line-3" fill-rule="nonzero" points="17 0 19 0 19 11 17 11"/></g></g></g></g></g></g></g></g></svg>