<svg xmlns="http://www.w3.org/2000/svg" xmlns:xlink="http://www.w3.org/1999/xlink" width="960" height="146" version="1.1" viewBox="0 0 960 146"><title>grid-gutter-l</title><desc>Created with Sketch.</desc><g id="1---Brand" fill="none" fill-rule="evenodd" stroke="none" stroke-width="1"><g id="6_Grid" transform="translate(-240.000000, -2683.000000)"><g id="structure" transform="translate(240.000000, 837.000000)"><g id="bp-copy" transform="translate(0.000000, 1252.000000)"><g id="small-copy-2" transform="translate(0.000000, 552.000000)"><g id="grid-gutter-l" transform="translate(0.000000, 42.000000)"><rect id="Rectangle-5" width="960" height="118" x="0" y="0" fill="#FAFBFF" fill-rule="nonzero"/><g id="Group-5" fill-rule="nonzero"><g id="Group-8" fill="#B6F2E4"><rect id="Rectangle-8" width="47" height="118" x="0" y="0"/><rect id="Rectangle-8-Copy-34" width="47" height="118" x="83" y="0"/><rect id="Rectangle-8-Copy-35" width="47" height="118" x="166" y="0"/><rect id="Rectangle-8-Copy-36" width="47" height="118" x="249" y="0"/><rect id="Rectangle-8-Copy-37" width="47" height="118" x="332" y="0"/><rect id="Rectangle-8-Copy-38" width="47" height="118" x="415" y="0"/><rect id="Rectangle-8-Copy-39" width="47" height="118" x="498" y="0"/><rect id="Rectangle-8-Copy-40" width="47" height="118" x="581" y="0"/><rect id="Rectangle-8-Copy-41" width="47" height="118" x="664" y="0"/><rect id="Rectangle-8-Copy-42" width="47" height="118" x="747" y="0"/><rect id="Rectangle-8-Copy-43" width="47" height="118" x="830" y="0"/><rect id="Rectangle-8-Copy-44" width="47" height="118" x="913" y="0"/></g><rect id="Rectangle-11-Copy" width="130" height="88" x="83" y="15" fill="#C3A7FC"/><rect id="Rectangle-11-Copy-10" width="130" height="88" x="249" y="15" fill="#C3A7FC"/><rect id="Rectangle-11-Copy-11" width="130" height="88" x="415" y="15" fill="#C3A7FC"/><rect id="Rectangle-11-Copy-12" width="130" height="88" x="581" y="15" fill="#C3A7FC"/><rect id="Rectangle-11-Copy-13" width="130" height="88" x="747" y="15" fill="#C3A7FC"/></g><g id="Group-10" fill="#F3376B" transform="translate(379.000000, 107.000000)"><g id="Group-11"><g id="Guides-/-Annotation-/-Size-/-Width" fill-rule="nonzero" transform="translate(18.500000, 5.500000) rotate(-180.000000) translate(-18.500000, -5.500000)"><rect id="Rectangle" width="2" height="11" x="0" y="0"/><rect id="Rectangle-Copy" width="2" height="11" x="35" y="0"/><rect id="Rectangle-2" width="37" height="2" x="0" y="0"/></g><g id="Guides-/-Annotation-/-Size-/-Value-/-Bottom" transform="translate(0.000000, 11.000000)"><text id="Value" font-family="IBMPlexSans-Bold, IBM Plex Sans" font-size="12" font-weight="bold" letter-spacing=".3"><tspan x="3.788" y="25">36px</tspan></text><polygon id="Line-3" fill-rule="nonzero" points="17 0 19 0 19 11 17 11"/></g></g><g id="Guides-/-Annotation-/-Size-/-Value-/-Bottom" transform="translate(249.000000, 11.000000)"><text id="Value" font-family="IBMPlexSans-Bold, IBM Plex Sans" font-size="12" font-weight="bold" letter-spacing=".3"><tspan x=".038" y="25">130px</tspan></text><polygon id="Line-3" fill-rule="nonzero" points="17 0 19 0 19 11 17 11"/></g><g id="Guides-/-Annotation-/-Size-/-Width" fill-rule="nonzero" transform="translate(267.000000, 5.500000) rotate(-180.000000) translate(-267.000000, -5.500000) translate(202.000000, 0.000000)"><rect id="Rectangle" width="2" height="11" x="0" y="0"/><rect id="Rectangle-Copy" width="2" height="11" x="128" y="0"/><rect id="Rectangle-2" width="130" height="2" x="0" y="0"/></g></g></g></g></g></g></g></g></svg>