<svg xmlns="http://www.w3.org/2000/svg" xmlns:xlink="http://www.w3.org/1999/xlink" width="960" height="146" version="1.1" viewBox="0 0 960 146"><title>grid-gutter-s</title><desc>Created with Sketch.</desc><g id="1---Brand" fill="none" fill-rule="evenodd" stroke="none" stroke-width="1"><g id="6_Grid" transform="translate(-240.000000, -2255.000000)"><g id="structure" transform="translate(240.000000, 837.000000)"><g id="bp-copy" transform="translate(0.000000, 1252.000000)"><g id="small" transform="translate(0.000000, 124.000000)"><g id="grid-gutter-s" transform="translate(0.000000, 42.000000)"><rect id="Rectangle-5" width="960" height="118" x="0" y="0" fill="#FAFBFF" fill-rule="nonzero"/><g id="Group-5" fill-rule="nonzero" transform="translate(2.000000, 0.000000)"><g id="Group-8" fill="#B6F2E4"><rect id="Rectangle-8" width="65" height="118" x="0" y="0"/><rect id="Rectangle-8-Copy-12" width="65" height="118" x="81" y="0"/><rect id="Rectangle-8-Copy-13" width="65" height="118" x="162" y="0"/><rect id="Rectangle-8-Copy-14" width="65" height="118" x="243" y="0"/><rect id="Rectangle-8-Copy-15" width="65" height="118" x="324" y="0"/><rect id="Rectangle-8-Copy-16" width="65" height="118" x="405" y="0"/><rect id="Rectangle-8-Copy-17" width="65" height="118" x="486" y="0"/><rect id="Rectangle-8-Copy-18" width="65" height="118" x="567" y="0"/><rect id="Rectangle-8-Copy-19" width="65" height="118" x="648" y="0"/><rect id="Rectangle-8-Copy-20" width="65" height="118" x="729" y="0"/><rect id="Rectangle-8-Copy-21" width="65" height="118" x="810" y="0"/><rect id="Rectangle-8-Copy-22" width="65" height="118" x="891" y="0"/></g><rect id="Rectangle-11-Copy" width="146" height="88" x="81" y="15" fill="#C3A7FC"/><rect id="Rectangle-11-Copy-4" width="146" height="88" x="243" y="15" fill="#C3A7FC"/><rect id="Rectangle-11-Copy-5" width="146" height="88" x="405" y="15" fill="#C3A7FC"/><rect id="Rectangle-11-Copy-6" width="146" height="88" x="567" y="15" fill="#C3A7FC"/><rect id="Rectangle-11-Copy-7" width="146" height="88" x="729" y="15" fill="#C3A7FC"/></g><g id="Group-9" fill="#F3376B" transform="translate(380.000000, 107.000000)"><g id="Guides-/-Annotation-/-Size-/-Width" fill-rule="nonzero" transform="translate(19.000000, 5.500000) rotate(-180.000000) translate(-19.000000, -5.500000) translate(11.000000, 0.000000)"><rect id="Rectangle" width="2" height="11" x="0" y="0"/><rect id="Rectangle-Copy" width="2" height="11" x="14" y="0"/><rect id="Rectangle-2" width="16" height="2" x="0" y="0"/></g><g id="Guides-/-Annotation-/-Size-/-Value-/-Bottom" transform="translate(0.000000, 11.000000)"><text id="Value" font-family="IBMPlexSans-Bold, IBM Plex Sans" font-size="12" font-weight="bold" letter-spacing=".3"><tspan x="3.788" y="25">16px</tspan></text><polygon id="Line-3" fill-rule="nonzero" points="17 0 19 0 19 11 17 11"/></g></g><g id="Group-9-Copy" fill="#F3376B" transform="translate(569.000000, 107.000000)"><g id="Guides-/-Annotation-/-Size-/-Width" fill-rule="nonzero" transform="translate(73.000000, 5.500000) rotate(-180.000000) translate(-73.000000, -5.500000)"><rect id="Rectangle" width="2" height="11" x="0" y="0"/><rect id="Rectangle-Copy" width="2" height="11" x="144" y="0"/><rect id="Rectangle-2" width="146" height="2" x="0" y="0"/></g><g id="Guides-/-Annotation-/-Size-/-Value-/-Bottom" transform="translate(55.000000, 11.000000)"><text id="Value" font-family="IBMPlexSans-Bold, IBM Plex Sans" font-size="12" font-weight="bold" letter-spacing=".3"><tspan x=".038" y="25">146px</tspan></text><polygon id="Line-3" fill-rule="nonzero" points="17 0 19 0 19 11 17 11"/></g></g></g></g></g></g></g></g></svg>