<svg xmlns="http://www.w3.org/2000/svg" xmlns:xlink="http://www.w3.org/1999/xlink" width="32" height="32" version="1.1" viewBox="0 0 32 32"><title>icon</title><desc>Created with Sketch.</desc><g id="3---Patterns" fill="none" fill-rule="evenodd" stroke="none" stroke-width="1"><g id="3_Patterns--Accessibility" fill-rule="nonzero" transform="translate(-240.000000, -1951.000000)"><g id="checklist" transform="translate(236.000000, 804.000000)"><g id="low-vision" transform="translate(4.000000, 1147.000000)"><g id="icon"><polygon id="Path-2" fill="#C1D1F7" points="7.984 23.384 23.784 8 13.757 6.096 4.056 11.353 2 16.225"/><path id="Oval" stroke="#356AE6" stroke-width="2" d="M30.8009703,16 C26.2911523,9.29205381 21.3629736,6 16,6 C10.6370264,6 5.70884768,9.29205381 1.19902966,16 C5.70884768,22.7079462 10.6370264,26 16,26 C21.3629736,26 26.2911523,22.7079462 30.8009703,16 Z"/><path id="Oval" stroke="#356AE6" stroke-linecap="square" stroke-linejoin="round" stroke-width="2" d="M13.1484559,20.107693 C13.9572756,20.670228 14.9401266,21 16,21 C18.7614237,21 21,18.7614237 21,16 C21,14.7708811 20.5565,13.6453471 19.8207974,12.7746954"/><path id="Line" stroke="#356AE6" stroke-dasharray="2 2" stroke-linecap="square" stroke-linejoin="round" stroke-width="2" d="M3,30 L30,2"/></g></g></g></g></g></svg>